<svg width="719" height="215" viewBox="0 0 719 215" fill="none" xmlns="http://www.w3.org/2000/svg">
<path d="M58.2 212.7C47 212.7 37 210.2 28.2 205.2C19.4 200.2 12.5 193.1 7.5 183.9C2.5 174.7 0 163.7 0 150.9V62.1H30.9V148.8C30.9 161.6 34.1 171.1 40.5 177.3C46.9 183.3 55.8 186.3 67.2 186.3C79.8 186.3 89.9 182.1 97.5 173.7C105.3 165.1 109.2 152.8 109.2 136.8V62.1H140.1V210H109.8V187.8H105C102.2 193.8 97.2 199.5 90 204.9C82.8 210.1 72.2 212.7 58.2 212.7Z" fill="#F4F1EA"/>
<path d="M185.777 210V62.1H216.077V84.3H220.877C223.677 78.3 228.677 72.7 235.877 67.5C243.077 62.3 253.777 59.7 267.977 59.7C279.177 59.7 289.077 62.2 297.677 67.2C306.477 72.2 313.377 79.3 318.377 88.5C323.377 97.5 325.877 108.4 325.877 121.2V210H294.977V123.6C294.977 110.8 291.777 101.4 285.377 95.4C278.977 89.2 270.177 86.1 258.977 86.1C246.177 86.1 235.877 90.3 228.077 98.7C220.477 107.1 216.677 119.3 216.677 135.3V210H185.777Z" fill="#F4F1EA"/>
<path d="M421.746 210C412.746 210 405.546 207.3 400.146 201.9C394.946 196.5 392.346 189.3 392.346 180.3V88.2H351.546V62.1H392.346V13.2H423.246V62.1H467.346V88.2H423.246V174.9C423.246 180.9 426.046 183.9 431.646 183.9H462.546V210H421.746Z" fill="#F4F1EA"/>
<path d="M503.648 210V62.1H534.548V210H503.648ZM519.248 42C513.248 42 508.148 40.1 503.948 36.3C499.948 32.3 497.948 27.2 497.948 21C497.948 14.8 499.948 9.80001 503.948 6.00001C508.148 2 513.248 0 519.248 0C525.448 0 530.548 2 534.548 6.00001C538.548 9.80001 540.548 14.8 540.548 21C540.548 27.2 538.548 32.3 534.548 36.3C530.548 40.1 525.448 42 519.248 42Z" fill="#F4F1EA"/>
<path d="M648.206 214.2C633.206 214.2 620.106 211.1 608.906 204.9C597.706 198.5 588.906 189.6 582.506 178.2C576.306 166.6 573.206 153.2 573.206 138V134.4C573.206 119 576.306 105.6 582.506 94.2C588.706 82.6 597.306 73.7 608.306 67.5C619.506 61.1 632.406 57.9 647.006 57.9C661.206 57.9 673.606 61.1 684.206 67.5C695.006 73.7 703.406 82.4 709.406 93.6C715.406 104.8 718.406 117.9 718.406 132.9V144.6H604.706C605.106 157.6 609.406 168 617.606 175.8C626.006 183.4 636.406 187.2 648.806 187.2C660.406 187.2 669.106 184.6 674.906 179.4C680.906 174.2 685.506 168.2 688.706 161.4L714.206 174.6C711.406 180.2 707.306 186.1 701.906 192.3C696.706 198.5 689.806 203.7 681.206 207.9C672.606 212.1 661.606 214.2 648.206 214.2ZM605.006 120.9H686.906C686.106 109.7 682.106 101 674.906 94.8C667.706 88.4 658.306 85.2 646.706 85.2C635.106 85.2 625.606 88.4 618.206 94.8C611.006 101 606.606 109.7 605.006 120.9Z" fill="#F4F1EA"/>
</svg>
